<?xml version="1.0" encoding="UTF-8" standalone="no"?>
<!-- Created with Inkscape (http://www.inkscape.org/) -->

<svg
   xmlns:dc="http://purl.org/dc/elements/1.1/"
   xmlns:cc="http://creativecommons.org/ns#"
   xmlns:rdf="http://www.w3.org/1999/02/22-rdf-syntax-ns#"
   xmlns:svg="http://www.w3.org/2000/svg"
   xmlns="http://www.w3.org/2000/svg"
   xmlns:xlink="http://www.w3.org/1999/xlink"
   xmlns:sodipodi="http://sodipodi.sourceforge.net/DTD/sodipodi-0.dtd"
   xmlns:inkscape="http://www.inkscape.org/namespaces/inkscape"
   width="150mm"
   height="40mm"
   viewBox="0 0 150 40"
   version="1.1"
   id="svg8"
   inkscape:version="0.92.4 (5da689c313, 2019-01-14)"
   sodipodi:docname="comformarkLogoIonic.svg">
  <title
     id="title3759">Comformark Logo for Ionic Apps</title>
  <defs
     id="defs2">
    <pattern
       y="0"
       x="0"
       height="6"
       width="6"
       patternUnits="userSpaceOnUse"
       id="EMFhbasepattern" />
    <pattern
       y="0"
       x="0"
       height="6"
       width="6"
       patternUnits="userSpaceOnUse"
       id="EMFhbasepattern-6" />
    <pattern
       y="0"
       x="0"
       height="6"
       width="6"
       patternUnits="userSpaceOnUse"
       id="EMFhbasepattern-68" />
  </defs>
  <sodipodi:namedview
     id="base"
     pagecolor="#ffffff"
     bordercolor="#666666"
     borderopacity="1.0"
     inkscape:pageopacity="0.0"
     inkscape:pageshadow="2"
     inkscape:zoom="1.979899"
     inkscape:cx="264.94769"
     inkscape:cy="81.379938"
     inkscape:document-units="mm"
     inkscape:current-layer="layer1"
     showgrid="false"
     inkscape:window-width="1920"
     inkscape:window-height="1017"
     inkscape:window-x="-8"
     inkscape:window-y="-8"
     inkscape:window-maximized="1"
     fit-margin-top="10"
     fit-margin-left="10"
     fit-margin-right="10"
     fit-margin-bottom="10" />
  <metadata
     id="metadata5">
    <rdf:RDF>
      <cc:Work
         rdf:about="">
        <dc:format>image/svg+xml</dc:format>
        <dc:type
           rdf:resource="http://purl.org/dc/dcmitype/StillImage" />
        <dc:title>Comformark Logo for Ionic Apps</dc:title>
      </cc:Work>
    </rdf:RDF>
  </metadata>
  <g
     inkscape:label="Layer 1"
     inkscape:groupmode="layer"
     id="layer1"
     transform="translate(-9.9541903,-18.472282)">
    <a
       id="a4075"
       xlink:href="https://www.comformark.com.au"
       xlink:title="Comformark Pty Ltd website"
       xlink:show="new">
      <g
         id="g4035">
        <g
           aria-label="Comformark"
           style="font-style:normal;font-variant:normal;font-weight:bold;font-stretch:normal;font-size:10.58333302px;line-height:1.25;font-family:Tahoma;-inkscape-font-specification:'Tahoma, Bold';font-variant-ligatures:normal;font-variant-caps:normal;font-variant-numeric:normal;font-feature-settings:normal;text-align:start;letter-spacing:0px;word-spacing:0px;writing-mode:lr-tb;text-anchor:start;fill:#000080;fill-opacity:1;stroke:none;stroke-width:0.26458332"
           id="text3715"
           transform="translate(-5.8764696,3.5329676)">
          <path
             id="path3870"
             style="font-style:normal;font-variant:normal;font-weight:bold;font-stretch:normal;font-size:10.58333302px;font-family:Tahoma;-inkscape-font-specification:'Tahoma, Bold';font-variant-ligatures:normal;font-variant-caps:normal;font-variant-numeric:normal;font-feature-settings:normal;text-align:start;writing-mode:lr-tb;text-anchor:start;fill:#000080;stroke-width:0.26458332"
             d="m 86.038306,31.660713 h -2.14974 l -1.570963,-2.526977 -0.279053,0.377238 v 2.149739 h -1.808675 v -8.040852 h 1.808675 v 4.506184 l 1.715657,-2.268595 h 2.134237 L 83.85756,28.358589 Z M 79.537411,27.56794 h -0.149862 q -0.103353,-0.03617 -0.299723,-0.05168 -0.196371,-0.02067 -0.434082,-0.02067 -0.284221,0 -0.599447,0.08268 -0.310059,0.08268 -0.604614,0.196371 v 3.886067 H 75.641008 V 25.85745 h 1.808675 v 0.831991 q 0.124023,-0.113689 0.341064,-0.284221 0.222209,-0.1757 0.403076,-0.279053 0.196371,-0.118855 0.454753,-0.201538 0.26355,-0.08785 0.496094,-0.08785 0.08785,0 0.19637,0.0052 0.108521,0.0052 0.196371,0.0155 z m -7.043499,2.578654 v -1.209229 q -0.459921,0.04651 -0.744141,0.08268 -0.28422,0.03101 -0.558105,0.129191 -0.237712,0.08268 -0.372071,0.253214 -0.129191,0.165365 -0.129191,0.444417 0,0.408244 0.217041,0.563274 0.222209,0.149861 0.651123,0.149861 0.237712,0 0.485759,-0.10852 0.248047,-0.108521 0.449585,-0.304891 z m 0,0.89917 q -0.186036,0.155029 -0.335897,0.279052 -0.144694,0.124024 -0.392741,0.248047 -0.242879,0.118856 -0.475423,0.180868 -0.227377,0.06201 -0.640788,0.06201 -0.769979,0 -1.281575,-0.516764 -0.506429,-0.516764 -0.506429,-1.302246 0,-0.645955 0.258382,-1.043864 0.258382,-0.397908 0.74414,-0.630452 0.490926,-0.237712 1.173055,-0.330729 0.682129,-0.09302 1.467611,-0.144694 v -0.03101 q 0,-0.480591 -0.356567,-0.661459 -0.3514,-0.186035 -1.059367,-0.186035 -0.320394,0 -0.749309,0.118856 -0.428914,0.113688 -0.837158,0.294556 h -0.155029 v -1.400432 q 0.268717,-0.07751 0.868164,-0.180867 0.599447,-0.108521 1.209229,-0.108521 1.498616,0 2.180745,0.501262 0.687296,0.496094 0.687296,1.519287 v 3.948079 h -1.798339 z m -6.351033,0.614949 v -2.899048 q 0,-0.428914 -0.0155,-0.72347 -0.0155,-0.294555 -0.09302,-0.48059 -0.07751,-0.186036 -0.242879,-0.268718 -0.160197,-0.08785 -0.454753,-0.08785 -0.206706,0 -0.408244,0.09302 -0.201538,0.08785 -0.43925,0.253214 v 4.113444 h -1.81901 v -2.899048 q 0,-0.423746 -0.02067,-0.718302 -0.0155,-0.299723 -0.09302,-0.485758 -0.07751,-0.186036 -0.242879,-0.268718 -0.160197,-0.08785 -0.449585,-0.08785 -0.222209,0 -0.434082,0.103353 -0.211874,0.103353 -0.413412,0.242879 v 4.113444 H 59.207902 V 25.85745 h 1.808675 v 0.640788 q 0.444418,-0.377238 0.837159,-0.589112 0.39274,-0.211873 0.883666,-0.211873 0.532268,0 0.935344,0.253215 0.403076,0.253214 0.614949,0.754475 0.521932,-0.485758 0.981853,-0.74414 0.465087,-0.26355 0.940511,-0.26355 0.403076,0 0.72347,0.129191 0.320394,0.129191 0.542602,0.387573 0.242879,0.279053 0.361735,0.666626 0.124024,0.382406 0.124024,1.002523 v 3.777547 z M 58.515438,27.56794 h -0.149862 q -0.103353,-0.03617 -0.299723,-0.05168 -0.19637,-0.02067 -0.434082,-0.02067 -0.28422,0 -0.599447,0.08268 -0.310058,0.08268 -0.604614,0.196371 v 3.886067 H 54.619035 V 25.85745 h 1.808675 v 0.831991 q 0.124024,-0.113689 0.341065,-0.284221 0.222208,-0.1757 0.403076,-0.279053 0.19637,-0.118855 0.454752,-0.201538 0.26355,-0.08785 0.496094,-0.08785 0.08785,0 0.196371,0.0052 0.10852,0.0052 0.19637,0.0155 z m -4.857584,1.193725 q 0,1.431438 -0.785482,2.25826 -0.780314,0.821656 -2.211751,0.821656 -1.421102,0 -2.211751,-0.821656 -0.785482,-0.826822 -0.785482,-2.25826 0,-1.44694 0.785482,-2.263427 0.790649,-0.821655 2.211751,-0.821655 1.426269,0 2.211751,0.826822 0.785482,0.821656 0.785482,2.25826 z m -1.855184,0.01034 q 0,-0.516765 -0.08785,-0.857829 -0.08268,-0.346232 -0.232544,-0.552938 -0.160197,-0.217041 -0.361735,-0.299723 -0.201538,-0.08785 -0.45992,-0.08785 -0.242879,0 -0.43925,0.07752 -0.19637,0.07235 -0.361735,0.28422 -0.155029,0.201538 -0.248047,0.552938 -0.09302,0.351399 -0.09302,0.883667 0,0.532267 0.08785,0.862996 0.08785,0.325562 0.227376,0.521932 0.144694,0.201538 0.361735,0.294556 0.217041,0.09302 0.480591,0.09302 0.217041,0 0.439249,-0.09302 0.227377,-0.09302 0.361736,-0.279053 0.160196,-0.222209 0.242879,-0.532267 0.08268,-0.315226 0.08268,-0.868164 z m -4.056599,-3.787887 h -0.139527 q -0.103352,-0.03101 -0.325561,-0.07751 -0.217041,-0.05168 -0.413412,-0.05168 -0.54777,0 -0.749308,0.201538 -0.19637,0.201538 -0.19637,0.754476 v 0.04651 h 1.436604 v 1.260905 h -1.374593 v 4.542358 h -1.808675 v -4.542358 h -0.72347 V 25.85745 h 0.72347 v -0.160197 q 0,-1.064534 0.558106,-1.596802 0.558105,-0.532267 1.689819,-0.532267 0.392741,0 0.733805,0.03101 0.341065,0.02584 0.589112,0.07235 z m -6.862631,6.676595 v -2.899048 q 0,-0.428914 -0.0155,-0.72347 -0.0155,-0.294555 -0.09302,-0.48059 -0.07751,-0.186036 -0.242879,-0.268718 -0.160197,-0.08785 -0.454753,-0.08785 -0.206705,0 -0.408243,0.09302 -0.201538,0.08785 -0.43925,0.253214 v 4.113444 h -1.81901 v -2.899048 q 0,-0.423746 -0.02067,-0.718302 -0.0155,-0.299723 -0.09302,-0.485758 -0.07751,-0.186036 -0.242879,-0.268718 -0.160197,-0.08785 -0.449585,-0.08785 -0.222208,0 -0.434082,0.103353 -0.211873,0.103353 -0.413411,0.242879 v 4.113444 H 33.948463 V 25.85745 h 1.808675 v 0.640788 q 0.444417,-0.377238 0.837158,-0.589112 0.392741,-0.211873 0.883667,-0.211873 0.532267,0 0.935343,0.253215 0.403077,0.253214 0.61495,0.754475 0.521932,-0.485758 0.981852,-0.74414 0.465088,-0.26355 0.940511,-0.26355 0.403076,0 0.72347,0.129191 0.320394,0.129191 0.542603,0.387573 0.242879,0.279053 0.361735,0.666626 0.124023,0.382406 0.124023,1.002523 v 3.777547 z m -7.896158,-2.899048 q 0,1.431438 -0.785482,2.25826 -0.780314,0.821656 -2.211751,0.821656 -1.421102,0 -2.211752,-0.821656 -0.785481,-0.826822 -0.785481,-2.25826 0,-1.44694 0.785481,-2.263427 0.79065,-0.821655 2.211752,-0.821655 1.426269,0 2.211751,0.826822 0.785482,0.821656 0.785482,2.25826 z m -1.855184,0.01034 q 0,-0.516765 -0.08785,-0.857829 -0.08268,-0.346232 -0.232544,-0.552938 -0.160197,-0.217041 -0.361735,-0.299723 -0.201538,-0.08785 -0.45992,-0.08785 -0.24288,0 -0.43925,0.07752 -0.19637,0.07235 -0.361735,0.28422 -0.155029,0.201538 -0.248047,0.552938 -0.09302,0.351399 -0.09302,0.883667 0,0.532267 0.08785,0.862996 0.08785,0.325562 0.227377,0.521932 0.144694,0.201538 0.361735,0.294556 0.217041,0.09302 0.480591,0.09302 0.217041,0 0.439249,-0.09302 0.227377,-0.09302 0.361735,-0.279053 0.160197,-0.222209 0.242879,-0.532267 0.08268,-0.315226 0.08268,-0.868164 z m -7.363892,3.03857 q -1.73116,0 -2.749186,-1.043864 -1.018026,-1.049032 -1.018026,-2.945557 0,-1.829345 1.018026,-2.91455 1.023193,-1.090373 2.754354,-1.090373 0.45992,0 0.826823,0.05168 0.366902,0.05168 0.702799,0.144694 0.26355,0.07751 0.573609,0.211874 0.310058,0.134359 0.501261,0.232544 v 1.834513 h -0.196371 q -0.139526,-0.124023 -0.351399,-0.294556 -0.211874,-0.175699 -0.480591,-0.341064 -0.268718,-0.165365 -0.594279,-0.279053 -0.320394,-0.118856 -0.671794,-0.118856 -0.418579,0 -0.769978,0.134359 -0.346233,0.129191 -0.661459,0.454753 -0.289388,0.294555 -0.475423,0.795817 -0.180867,0.501261 -0.180867,1.18339 0,0.718302 0.191202,1.209229 0.191203,0.485758 0.501262,0.785481 0.299723,0.289388 0.666626,0.418579 0.37207,0.129191 0.738973,0.129191 0.382405,0 0.728637,-0.124023 0.346232,-0.129191 0.583944,-0.28422 0.258382,-0.160197 0.454753,-0.325562 0.19637,-0.165364 0.341064,-0.294556 h 0.1757 v 1.808676 q -0.211873,0.09819 -0.490926,0.227376 -0.279053,0.124023 -0.573609,0.211873 -0.361735,0.108521 -0.676961,0.165365 -0.315226,0.05684 -0.868164,0.05684 z"
             inkscape:connector-curvature="0" />
        </g>
        <text
           transform="scale(0.90572999,1.1040818)"
           id="text3730"
           y="37.561989"
           x="15.361054"
           style="font-style:normal;font-variant:normal;font-weight:normal;font-stretch:normal;font-size:4.23333311px;line-height:1.25;font-family:sans-serif;-inkscape-font-specification:'sans-serif, Normal';font-variant-ligatures:normal;font-variant-caps:normal;font-variant-numeric:normal;font-feature-settings:normal;text-align:start;letter-spacing:0px;word-spacing:0px;writing-mode:lr-tb;text-anchor:start;fill:#000000;fill-opacity:1;stroke:none;stroke-width:0.11583053"
           xml:space="preserve"><tspan
             style="font-style:normal;font-variant:normal;font-weight:normal;font-stretch:normal;font-size:4.23333311px;font-family:sans-serif;-inkscape-font-specification:'sans-serif, Normal';font-variant-ligatures:normal;font-variant-caps:normal;font-variant-numeric:normal;font-feature-settings:normal;text-align:start;writing-mode:lr-tb;text-anchor:start;fill:#000000;stroke-width:0.11583053"
             y="37.561989"
             x="15.361054"
             id="tspan3728"
             sodipodi:role="line">computer services for marketing</tspan></text>
        <text
           transform="scale(0.90572999,1.1040818)"
           id="text3730-3"
           y="43.313377"
           x="15.315578"
           style="font-style:normal;font-variant:normal;font-weight:normal;font-stretch:normal;font-size:4.23333311px;line-height:1.25;font-family:sans-serif;-inkscape-font-specification:'sans-serif, Normal';font-variant-ligatures:normal;font-variant-caps:normal;font-variant-numeric:normal;font-feature-settings:normal;text-align:start;letter-spacing:0px;word-spacing:0px;writing-mode:lr-tb;text-anchor:start;fill:#000000;fill-opacity:1;stroke:none;stroke-width:0.11583053"
           xml:space="preserve"><tspan
             style="font-style:normal;font-variant:normal;font-weight:normal;font-stretch:normal;font-size:4.23333311px;font-family:sans-serif;-inkscape-font-specification:'sans-serif, Normal';font-variant-ligatures:normal;font-variant-caps:normal;font-variant-numeric:normal;font-feature-settings:normal;text-align:start;writing-mode:lr-tb;text-anchor:start;fill:#000000;stroke-width:0.11583053"
             y="43.313377"
             x="15.315578"
             id="tspan3728-3"
             sodipodi:role="line">Sydney, Australia</tspan></text>
        <g
           transform="translate(-1.0583333,-1.0583333)"
           id="g3943">
          <path
             id="path3797"
             d="m 92.148924,41.129448 0.003,-0.0074 -0.0243,-0.01033 0.31799,-0.933658 0.0155,-0.04722 c -0.18113,-0.08964 -0.35229,-0.194035 -0.509437,-0.30876 l -0.884227,0.664001 -0.535627,-0.527512 0.776142,-0.73704 c -0.137569,-0.164868 -0.257458,-0.34009 -0.358903,-0.524166 l -1.114413,0.251951 -0.253796,-0.676542 1.059449,-0.361142 c -0.04722,-0.198093 -0.07488,-0.399507 -0.08263,-0.603871 l -1.147982,-0.240516 0.09923,-0.6972 1.139129,0.120996 c 0.02988,-0.115831 0.06529,-0.230187 0.112142,-0.343436 0.02951,-0.07747 0.06234,-0.152351 0.100338,-0.225022 l -0.946938,-0.643711 0.406147,-0.583951 1.007436,0.542635 c 0.140177,-0.154195 0.295843,-0.29216 0.462953,-0.415737 l -0.552594,-0.959849 0.658834,-0.343436 0.649617,0.884965 c 0.20067,-0.07968 0.4091,-0.141285 0.62453,-0.185552 l -0.073,-1.057604 0.76581,-0.05496 0.19957,1.044694 c 0.21654,0.0089 0.43935,0.03726 0.65994,0.08632 l 0.43308,-0.964645 0.72966,0.257116 -0.31061,1.003378 c 0.20142,0.09665 0.38844,0.20916 0.56367,0.336795 l 0.88607,-0.665106 0.53526,0.529355 -0.77615,0.735934 c 0.13575,0.164155 0.25564,0.340115 0.35783,0.523822 l 1.11478,-0.250476 0.25416,0.677649 -1.06092,0.358191 c 0.0487,0.198462 0.0767,0.402089 0.083,0.604978 l 1.14798,0.237933 -0.0985,0.6972 -1.14023,-0.118044 c -0.0295,0.115462 -0.066,0.229449 -0.1103,0.342698 -0.0314,0.07673 -0.0646,0.152351 -0.10108,0.225391 l 0.94731,0.645924 -0.40799,0.58432 -1.00781,-0.544849 c -0.13981,0.15272 -0.29474,0.29216 -0.46295,0.416107 l 0.55259,0.960218 -0.65736,0.344173 -0.65182,-0.887546 c -0.19883,0.07968 -0.40836,0.141653 -0.62379,0.184444 l 0.0738,1.061293 -0.76545,0.05496 -0.20067,-1.0458 c -0.23794,-0.0118 -0.47919,-0.045 -0.71971,-0.101076 l -0.0229,0.045 -0.40541,0.900458 -0.0229,-0.0092 -0.005,0.0077 -0.35044,-0.132431 z m 1.06794,-1.687298 c 1.28299,0.466275 2.69436,-0.09222 3.15215,-1.250165 0.45743,-1.157204 -0.21285,-2.475982 -1.49547,-2.943364 -1.28337,-0.467382 -2.69363,0.09259 -3.151787,1.249427 -0.457423,1.157942 0.21248,2.475982 1.495107,2.944102 z m -0.49579,-2.580378 c 0.2597,-0.658835 1.06535,-0.977924 1.79649,-0.711956 0.73114,0.267445 1.11331,1.018872 0.85213,1.678076 -0.26117,0.659942 -1.06572,0.979769 -1.79649,0.712325 -0.73187,-0.265969 -1.11183,-1.017027 -0.85213,-1.678445 z m 0.79496,1.303654 0.42791,-0.794218 -0.88128,-0.424591 c -0.005,0.0118 -0.0107,0.02361 -0.0151,0.03541 -0.17411,0.44156 0.0328,0.938084 0.46849,1.183396 z m 0.17301,0.08079 c 0.49025,0.177805 1.02588,0.0066 1.27488,-0.383644 l -0.88054,-0.424222 -0.42828,0.793111 c 0.0107,0.0048 0.0232,0.0096 0.0339,0.01475 z m 0.32204,-0.998951 0.42643,-0.788685 c -0.0125,-0.0048 -0.0243,-0.0089 -0.0362,-0.01402 -0.48804,-0.178543 -1.02035,-0.0085 -1.27193,0.378111 z m 1.03252,0.461849 c 0.17337,-0.441191 -0.0332,-0.936978 -0.46776,-1.183765 l -0.42532,0.788316 0.88053,0.424591 c 0.004,-0.01 0.008,-0.01955 0.0125,-0.02914 z"
             style="fill:#4d4d4d;fill-opacity:1;fill-rule:evenodd;stroke:none;stroke-width:0.26458332"
             inkscape:connector-curvature="0" />
          <path
             id="path3799"
             d="m 85.148729,36.272384 7.38e-4,-0.0044 -0.0048,-3.69e-4 0.0557,-0.184076 0.09849,-0.190715 0.127266,-0.253058 c -0.299158,-0.18149 -0.556274,-0.404668 -0.768385,-0.656619 l -0.475498,0.246049 -0.186658,0.05644 -0.350444,-0.560711 0.15272,-0.130587 0.449307,-0.264862 c -0.139441,-0.2988 -0.223916,-0.620471 -0.249738,-0.949889 l -0.534889,-0.02287 -0.187765,-0.0439 0.0332,-0.655516 0.204365,-0.03726 0.525667,-0.007 c 0.05718,-0.2988 0.164893,-0.598706 0.323515,-0.886071 0.0081,-0.0166 0.01697,-0.0332 0.02767,-0.04906 l -0.427914,-0.291052 -0.127267,-0.130955 0.414631,-0.544111 0.188503,0.07046 0.43492,0.25896 c 0.243835,-0.251951 0.52714,-0.462956 0.83627,-0.628587 l -0.18076,-0.462587 -0.0277,-0.177804 0.66069,-0.257484 0.11435,0.155302 0.20584,0.438609 c 0.34233,-0.09222 0.70126,-0.133907 1.05835,-0.122103 l 0.12173,-0.487671 0.0797,-0.166369 0.69683,0.108085 0.004,0.18924 -0.0863,0.480662 c 0.16785,0.04611 0.33237,0.105133 0.49247,0.177435 0.16231,0.07341 0.31282,0.155302 0.45373,0.248631 l 0.38142,-0.357084 0.16157,-0.104396 0.51534,0.43824 -0.10771,0.164156 -0.35082,0.372947 c 0.22576,0.251213 0.40394,0.534888 0.52862,0.837746 l 0.52235,-0.117675 0.19477,-0.0085 0.17006,0.631906 -0.18408,0.08853 -0.50833,0.145712 c 0.0391,0.321671 0.0236,0.652933 -0.0524,0.980506 l 0.50022,0.16268 0.16526,0.09112 -0.2324,0.625636 -0.20363,-0.01697 -0.50353,-0.12948 c -0.009,0.01586 -0.0177,0.03246 -0.0269,0.04906 -0.15899,0.287364 -0.35893,0.544111 -0.58986,0.765444 l 0.31651,0.39176 0.0826,0.160836 -0.55997,0.417582 -0.15789,-0.115462 -0.33569,-0.364093 c -0.30691,0.178542 -0.64149,0.309866 -0.98972,0.392497 l 0.0354,0.489885 -0.0236,0.180018 -0.7079,0.08411 -0.0623,-0.178542 -0.0697,-0.482507 c -0.34934,7.33e-4 -0.70126,-0.05128 -1.04174,-0.15789 l -0.14645,0.243098 -0.11509,0.194036 -0.12432,0.141653 -0.003,-0.0018 -0.003,0.0044 -0.31346,-0.144243 z m 4.737274,-2.05508 c 0.73409,-1.330582 0.18112,-2.929347 -1.23763,-3.567525 -1.41911,-0.639653 -3.16617,-0.07894 -3.902102,1.250534 -0.735195,1.329844 -0.180755,2.928977 1.237622,3.567524 1.41948,0.639653 3.16654,0.07894 3.90211,-1.250533 z M 84.903418,31.97077 c 0.689085,-1.24832 2.332485,-1.774355 3.663435,-1.174542 1.33095,0.601289 1.85256,2.102298 1.16274,3.349511 -0.6913,1.249427 -2.33249,1.775831 -3.66418,1.17528 -1.33279,-0.599813 -1.853662,-2.100084 -1.161995,-3.350249 z m 1.811245,3.051449 c 0.22539,-0.136857 0.29511,-0.413155 0.15346,-0.61752 -0.14166,-0.203995 -0.43898,-0.260066 -0.66511,-0.123209 -0.22613,0.136858 -0.294,0.413156 -0.15346,0.617889 0.14092,0.205471 0.43861,0.260436 0.66511,0.12284 z m -1.33612,-0.95616 c 0.26007,0.04722 0.51829,-0.111773 0.57658,-0.352289 0.0583,-0.243466 -0.10514,-0.475866 -0.3641,-0.522346 -0.261538,-0.04685 -0.520129,0.111404 -0.577307,0.353026 -0.05792,0.241991 0.10624,0.47476 0.364827,0.521609 z m 2.40442,1.074574 c 0.25896,0.04869 0.51829,-0.107347 0.58063,-0.347494 0.0609,-0.240884 -0.0996,-0.477342 -0.3593,-0.526404 -0.25896,-0.04906 -0.51939,0.106609 -0.58136,0.348231 -0.0601,0.240884 0.1007,0.475867 0.36003,0.525667 z m 0.51349,-1.640081 c 0.28036,-0.506484 0.069,-1.116626 -0.47291,-1.36083 -0.54042,-0.243836 -1.20811,-0.02914 -1.48773,0.476604 -0.28036,0.507591 -0.0686,1.117364 0.47218,1.3612 0.54116,0.243835 1.207,0.02951 1.48846,-0.476974 z m 0.98678,0.683552 c 0.22539,-0.137596 0.29401,-0.413894 0.15272,-0.619365 -0.14091,-0.203258 -0.43824,-0.258222 -0.66437,-0.122471 -0.22502,0.13612 -0.29437,0.413525 -0.15345,0.617889 0.14165,0.205471 0.43971,0.260067 0.6651,0.123947 z m -3.41333,-1.55708 c 0.22429,-0.138703 0.28995,-0.416107 0.14608,-0.618996 -0.14239,-0.203258 -0.44229,-0.256378 -0.66658,-0.1162 -0.223545,0.138334 -0.289576,0.415738 -0.145709,0.618996 0.143499,0.202889 0.441929,0.25564 0.666209,0.1162 z m 3.18905,0.289209 c 0.25859,0.05017 0.51866,-0.10624 0.58026,-0.346387 0.062,-0.241253 -0.0974,-0.477342 -0.35782,-0.526404 -0.25859,-0.05091 -0.5194,0.105502 -0.58063,0.345648 -0.062,0.240885 0.0992,0.477712 0.35819,0.527143 z m -2.41807,-1.10888 c 0.26044,0.04353 0.51645,-0.118783 0.57141,-0.360774 0.0542,-0.241991 -0.11288,-0.473284 -0.37442,-0.515706 -0.26118,-0.04316 -0.51645,0.118413 -0.57104,0.360035 -0.0546,0.24236 0.11325,0.473285 0.37405,0.516445 z m 1.84039,0.0088 c 0.22465,-0.13833 0.29031,-0.416842 0.14608,-0.620468 -0.14276,-0.20252 -0.44193,-0.254165 -0.66548,-0.115831 -0.22502,0.139071 -0.28994,0.416844 -0.14571,0.618626 0.14202,0.204365 0.44082,0.256378 0.66511,0.117676 z"
             style="fill:#000000;fill-opacity:1;fill-rule:evenodd;stroke:none;stroke-width:0.26458332"
             inkscape:connector-curvature="0" />
          <path
             id="path3797-4"
             d="m 91.619757,32.254736 0.003,-0.0074 -0.0243,-0.01033 0.31799,-0.933659 0.0155,-0.04722 c -0.18113,-0.08964 -0.35229,-0.194034 -0.50944,-0.30876 l -0.88423,0.664 -0.53562,-0.527512 0.77614,-0.73704 c -0.13757,-0.164868 -0.25746,-0.340089 -0.3589,-0.524166 l -1.11442,0.251951 -0.25379,-0.676542 1.05945,-0.361142 c -0.0472,-0.198093 -0.0749,-0.399507 -0.0826,-0.603871 l -1.14799,-0.240516 0.0992,-0.6972 1.13913,0.120996 c 0.0299,-0.115831 0.0653,-0.230187 0.11214,-0.343436 0.0295,-0.07747 0.0623,-0.152351 0.10034,-0.225022 l -0.94694,-0.643711 0.40615,-0.583951 1.00744,0.542635 c 0.14017,-0.154195 0.29585,-0.29216 0.46295,-0.415737 l -0.55259,-0.959849 0.65883,-0.343436 0.64962,0.884965 c 0.20067,-0.07968 0.4091,-0.141285 0.62453,-0.185552 l -0.073,-1.057604 0.76581,-0.05496 0.19957,1.044694 c 0.21654,0.0089 0.43935,0.03726 0.65994,0.08632 l 0.43308,-0.964645 0.72966,0.257116 -0.31061,1.003378 c 0.20142,0.09665 0.38844,0.20916 0.56367,0.336795 l 0.88607,-0.665106 0.53526,0.529355 -0.77615,0.735934 c 0.13575,0.164155 0.25564,0.340115 0.35783,0.523822 l 1.11478,-0.250476 0.25416,0.677649 -1.06092,0.358191 c 0.0487,0.198463 0.0767,0.402089 0.083,0.604978 l 1.14798,0.237933 -0.0985,0.6972 -1.14023,-0.118044 c -0.0295,0.115462 -0.066,0.229449 -0.1103,0.342698 -0.0314,0.07673 -0.0646,0.152351 -0.10108,0.225391 l 0.94731,0.645924 -0.40799,0.584321 -1.00781,-0.54485 c -0.13981,0.15272 -0.29474,0.292161 -0.46295,0.416108 l 0.55259,0.960217 -0.65736,0.344173 -0.65182,-0.887546 c -0.19883,0.07968 -0.40836,0.141653 -0.62379,0.184444 l 0.0738,1.061293 -0.76545,0.05496 -0.20067,-1.0458 c -0.23794,-0.0118 -0.47919,-0.045 -0.71971,-0.101075 l -0.0229,0.045 -0.40541,0.900458 -0.0229,-0.0092 -0.005,0.0077 -0.35044,-0.132432 z m 1.06794,-1.687299 c 1.28299,0.466276 2.69436,-0.09222 3.15215,-1.250165 0.45743,-1.157204 -0.21285,-2.475982 -1.49547,-2.943364 -1.28337,-0.467382 -2.69363,0.09259 -3.15179,1.249428 -0.45742,1.157941 0.21248,2.475981 1.49511,2.944101 z m -0.49579,-2.580378 c 0.2597,-0.658835 1.06535,-0.977924 1.79649,-0.711956 0.73114,0.267445 1.11331,1.018872 0.85213,1.678076 -0.26117,0.659942 -1.06572,0.97977 -1.79649,0.712325 -0.73187,-0.265969 -1.11183,-1.017027 -0.85213,-1.678445 z m 0.79496,1.303654 0.42791,-0.794218 -0.88128,-0.424591 c -0.005,0.0118 -0.0107,0.02361 -0.0151,0.03541 -0.17411,0.44156 0.0328,0.938084 0.46849,1.183396 z m 0.17301,0.08079 c 0.49025,0.177805 1.02588,0.0066 1.27488,-0.383644 l -0.88054,-0.424222 -0.42828,0.793111 c 0.0107,0.0048 0.0232,0.0096 0.0339,0.01475 z m 0.32204,-0.998951 0.42643,-0.788685 c -0.0125,-0.0048 -0.0243,-0.0089 -0.0362,-0.01402 -0.48804,-0.178543 -1.02035,-0.0085 -1.27193,0.378111 z m 1.03252,0.461849 c 0.17337,-0.441191 -0.0332,-0.936978 -0.46776,-1.183765 l -0.42532,0.788317 0.88053,0.42459 c 0.004,-0.01 0.008,-0.01955 0.0125,-0.02914 z"
             style="fill:#808080;fill-opacity:1;fill-rule:evenodd;stroke:none;stroke-width:0.26458332"
             inkscape:connector-curvature="0" />
        </g>
      </g>
    </a>
  </g>
</svg>
